<svg width="1196" height="84" viewBox="0 0 1196 84" fill="none" xmlns="http://www.w3.org/2000/svg">
<rect width="1196" height="84" fill="#17181B" fill-opacity="0.1"/>
<path d="M40 44.2883V38.9529H63.8126V44.2883H55.1698V59.7041H48.669V44.2883H40Z" fill="white"/>
<path d="M66.6455 38.9529H86.1728V44.141H73.1463V46.8094H83.956V51.4044H73.1463V54.5173H86.1728V59.7054H66.6455V38.9529Z" fill="white"/>
<path d="M104.519 51.6003H111.02C111.02 56.7385 106.611 60 99.9135 60C92.575 60 87.8479 55.8245 87.8479 49.3278C87.8479 42.8311 92.5764 38.6556 99.9135 38.6556C106.611 38.6556 111.02 41.9158 111.02 47.0553H104.519C104.272 45.2273 102.672 43.9924 99.865 43.9924C96.3688 43.9924 94.3736 45.919 94.3736 49.3041C94.3736 52.6892 96.5156 54.6646 100.062 54.6646C102.745 54.6646 104.272 53.4297 104.519 51.6016V51.6003Z" fill="white"/>
<path d="M113.238 38.9529H119.738V46.2649H128.751V38.9529H135.252V59.7041H128.751V51.6017H119.738V59.7041H113.238V38.9529Z" fill="white"/>
<path d="M142.753 51.6003V38.9515H149.253V51.4517C149.253 53.4283 150.879 54.5146 153.809 54.5146C156.739 54.5146 158.341 53.4283 158.341 51.4517V38.9515H164.841V51.6003C164.841 56.9358 160.827 60 153.81 60C146.793 60 142.753 56.9371 142.753 51.6003Z" fill="white"/>
<path d="M167.674 38.9529H181.662C186.192 38.9529 189 41.6449 189 46.0677C189 50.4904 186.045 53.7256 181.662 53.7256H174.176V59.7041H167.676V38.9529H167.674ZM179.74 48.6861C181.512 48.6861 182.498 47.8707 182.498 46.4872C182.498 45.1037 181.464 44.2883 179.74 44.2883H174.175V48.6861H179.74Z" fill="white"/>
<path d="M50.2564 32.7771L48.2206 30.2692L51.1767 26.6184H49.5643C48.8394 26.6184 48.3452 26.8406 47.9047 27.3562L46.3473 29.2776V24H44.7847C44.419 24 44.1201 24.2985 44.1201 24.6681V34.5144H45.6814C46.0498 34.5144 46.3473 34.2145 46.3473 33.8463V31.2266L47.6137 32.7837L48.6886 34.1119C48.9062 34.3868 49.192 34.5144 49.4843 34.5144H51.6656L50.2564 32.7758V32.7771Z" fill="white"/>
<path d="M54.2613 34.5157C53.0605 34.5157 52.2268 33.6832 52.2268 32.4746V24.6681C52.2268 24.2985 52.5257 24 52.8954 24H54.458V32.0551C54.458 32.3865 54.7267 32.6561 55.0544 32.6561H56.6459V33.8476C56.6459 34.2171 56.347 34.5157 55.9786 34.5157H54.2613Z" fill="white"/>
<path d="M56.9671 26.0371L56.8308 26.1818C56.8229 26.1844 56.4061 26.6144 55.2026 26.6144H49.5225C48.6259 26.6144 48.2038 26.9814 47.8813 27.3772L47.703 27.5968C47.703 27.5968 47.6938 27.606 47.6899 27.6113L46.5625 29.0027C46.9728 28.6923 47.5352 28.5069 48.1081 28.5069H55.2026C56.0652 28.5069 56.8911 28.2504 56.9593 27.6047C56.9671 27.5534 56.9671 27.5206 56.9671 27.5206V26.0371Z" fill="#E0282F"/>
<path d="M60.4448 33.7989C59.9912 33.2321 59.7644 32.397 59.7644 31.2936C59.7644 30.1902 60.0436 29.434 60.6008 28.9027C61.1579 28.3714 61.9235 28.1057 62.8936 28.1057C63.608 28.1057 64.0734 28.0623 64.2897 27.9729V29.0355C64.2897 29.1644 64.1809 29.2551 63.9659 29.3064C63.7483 29.359 63.4284 29.3853 63.0024 29.3853C62.36 29.3853 61.9012 29.5418 61.6233 29.8562C61.3467 30.1705 61.209 30.6531 61.209 31.3054C61.209 32.681 61.698 33.3701 62.6773 33.3701C63.4232 33.3701 64.0419 33.2531 64.5309 33.0203V34.0106C64.5309 34.1789 64.4457 34.3039 64.2779 34.3854C64.1573 34.4577 63.9305 34.5196 63.5975 34.5722C63.2645 34.6248 62.9735 34.6511 62.7258 34.6511C61.6587 34.6511 60.8984 34.367 60.4461 33.8002L60.4448 33.7989Z" fill="#E0282F"/>
<path d="M66.0031 34.2224C65.775 33.937 65.6597 33.4885 65.6597 32.8757V25.7175C65.6597 25.4847 65.7803 25.3677 66.0202 25.3677H67.0794V32.8638C67.0794 33.2334 67.2039 33.4188 67.4517 33.4188C67.6601 33.4188 67.8371 33.3991 67.9813 33.3583V34.1908C67.9813 34.2789 67.959 34.3539 67.9157 34.4144C67.8712 34.4749 67.8135 34.5169 67.7414 34.5406C67.5408 34.6129 67.352 34.6498 67.1751 34.6498C66.6219 34.6498 66.2312 34.5064 66.0018 34.221L66.0031 34.2224Z" fill="#E0282F"/>
<path d="M69.3853 33.8778C68.899 33.3623 68.6565 32.518 68.6565 31.3423C68.6565 30.1666 68.899 29.3183 69.3853 28.7949C69.8704 28.2715 70.5743 28.0098 71.4972 28.0098C72.4201 28.0098 73.1253 28.2715 73.6156 28.7949C74.1046 29.3183 74.3497 30.1666 74.3497 31.3423C74.3497 32.518 74.1059 33.3623 73.6156 33.8778C73.1253 34.392 72.4201 34.6498 71.4972 34.6498C70.5743 34.6498 69.8704 34.392 69.3853 33.8778ZM72.563 32.9112C72.7911 32.6061 72.9051 32.0827 72.9051 31.3423C72.9051 30.6019 72.7911 30.0745 72.563 29.7602C72.3336 29.4459 71.9783 29.2894 71.4972 29.2894C71.0161 29.2894 70.6622 29.4459 70.438 29.7602C70.2138 30.0745 70.1011 30.6019 70.1011 31.3423C70.1011 32.0827 70.2125 32.6061 70.438 32.9112C70.6622 33.2176 71.0161 33.3702 71.4972 33.3702C71.9783 33.3702 72.3336 33.2176 72.563 32.9112Z" fill="#E0282F"/>
<path d="M76.2018 34.1368C75.8007 33.7949 75.6001 33.2662 75.6001 32.5495V28.4082C75.6001 28.207 75.7011 28.1057 75.9003 28.1057H77.0198V32.222C77.0198 33.0032 77.341 33.3938 77.982 33.3938C78.2311 33.3938 78.4526 33.353 78.6493 33.2728C78.8459 33.1926 79.0727 33.0716 79.3296 32.9112V29.555C79.3296 29.1683 79.3414 28.8751 79.3663 28.6738C79.3899 28.4726 79.4358 28.328 79.5053 28.2399C79.5735 28.1517 79.6757 28.107 79.8121 28.107H80.9303C80.8097 28.4056 80.7507 28.8632 80.7507 29.484V34.1684C80.7507 34.4012 80.634 34.5182 80.402 34.5182H79.331V34.1566C79.0583 34.317 78.8092 34.4406 78.585 34.5248C78.3596 34.609 78.1039 34.6524 77.8142 34.6524C77.1404 34.6524 76.603 34.4814 76.2018 34.1395V34.1368Z" fill="#E0282F"/>
<path d="M82.6765 33.841C82.2662 33.3018 82.063 32.5127 82.063 31.4751C82.063 29.1658 83.0737 28.0111 85.0964 28.0111C85.4176 28.0111 85.7178 28.0479 85.9996 28.1202V26.817C85.9996 26.4224 86.0114 26.1265 86.035 25.9306C86.0586 25.7333 86.1019 25.59 86.1674 25.5018C86.2317 25.4137 86.3365 25.369 86.4807 25.369H87.5989C87.4796 25.6583 87.4193 26.1173 87.4193 26.7446V34.1698C87.4193 34.4026 87.2987 34.5196 87.0575 34.5196H85.9983V34.1698C85.5172 34.492 85.0073 34.6524 84.4698 34.6524C83.6833 34.6524 83.0855 34.3828 82.6765 33.8436V33.841ZM85.4504 33.2255C85.6863 33.1295 85.8699 33.0046 85.9983 32.8507V29.3985C85.7493 29.3262 85.4844 29.2894 85.2039 29.2894C84.7071 29.2894 84.2994 29.4367 83.9835 29.7299C83.6662 30.0232 83.5076 30.6137 83.5076 31.4988C83.5076 32.1024 83.6203 32.5653 83.8445 32.8875C84.0687 33.2097 84.3898 33.3702 84.8067 33.3702C84.9994 33.3702 85.2144 33.3215 85.4504 33.2255Z" fill="#E0282F"/>
<path d="M292.85 33.7969V37.8047H295.205V38.9824H292.85V42.8848H291.479V33.7969H292.85ZM284.342 43.5703V45.2402H291.479V43.5703H292.85V49.2129H282.971V43.5703H284.342ZM284.342 48.1055H291.479V46.3301H284.342V48.1055ZM289.984 35.4141V36.5566H280.668V35.4141H284.641V33.6562H286.012V35.4141H289.984ZM285.326 37.2773C287.576 37.2773 289.07 38.3496 289.088 40.0195C289.07 41.6895 287.576 42.7617 285.326 42.7617C283.059 42.7617 281.547 41.6895 281.564 40.0195C281.547 38.3496 283.059 37.2773 285.326 37.2773ZM285.326 38.3496C283.85 38.332 282.865 39.0176 282.883 40.0195C282.865 41.0391 283.85 41.707 285.326 41.707C286.785 41.707 287.77 41.0391 287.787 40.0195C287.77 39.0176 286.785 38.332 285.326 38.3496ZM304.434 34.8691C304.434 35.4756 304.363 36.0557 304.24 36.6094H307.756V33.8145H309.145V43.1309H307.756V41.0566H303.607V39.9141H307.756V37.752H303.871C302.808 40.2129 300.364 41.9883 296.98 42.9199L296.436 41.8125C300.25 40.7578 302.667 38.6572 302.957 35.9941H297.227V34.8691H304.434ZM309.145 43.8164V49.4062H307.756V44.9238H298.633V43.8164H309.145ZM321.818 37.998C321.801 40.8457 323.752 43.7285 326.055 44.7656L325.211 45.8555C323.436 44.9854 321.897 43.1484 321.15 40.916C320.421 43.2803 318.883 45.249 317.055 46.1719L316.176 45.0117C318.496 43.9395 320.43 40.9688 320.447 37.998V35.1504H321.818V37.998ZM329.148 33.7969V49.459H327.76V33.7969H329.148ZM345.689 35.4844V36.6094H336.373V35.4844H340.346V33.7266H341.717V35.4844H345.689ZM341.031 37.418C343.281 37.4355 344.775 38.5254 344.793 40.248C344.775 41.9531 343.281 43.0605 341.031 43.0605C338.781 43.0605 337.252 41.9531 337.27 40.248C337.252 38.5254 338.781 37.4355 341.031 37.418ZM341.031 38.4902C339.555 38.5078 338.57 39.1934 338.588 40.248C338.57 41.2852 339.555 41.9531 341.031 41.9531C342.49 41.9531 343.475 41.2852 343.492 40.248C343.475 39.1934 342.49 38.5078 341.031 38.4902ZM348.555 33.7969V38.1387H350.91V39.2988H348.555V43.5703H347.184V33.7969H348.555ZM348.555 44.4316V49.4238H347.184V45.5566H338.324V44.4316H348.555ZM355.076 43.1836V45.0117H362.881V43.1836H364.27V49.2129H353.705V43.1836H355.076ZM355.076 48.1055H362.881V46.1016H355.076V48.1055ZM366.133 40.9336V42.0762H351.895V40.9336H366.133ZM359.734 34.7109C359.734 36.6445 362.582 38.3672 365.324 38.7188L364.814 39.8262C362.389 39.4658 360.016 38.2266 359.031 36.4688C358.029 38.2354 355.639 39.4658 353.23 39.8262L352.703 38.7188C355.48 38.3496 358.311 36.6973 358.311 34.7109V33.9727H359.734V34.7109ZM384.889 33.7969V49.4238H383.5V33.7969H384.889ZM380.266 35.502C380.248 40.002 378.156 43.9746 372.918 46.4883L372.162 45.3633C376.39 43.3594 378.543 40.3623 378.859 36.627H372.883V35.502H380.266ZM399.742 33.7969V38.5605H402.098V39.7207H399.742V45.2402H398.354V33.7969H399.742ZM395.523 35.0098C395.523 39.0352 392.641 42.0234 388.141 43.4297L387.543 42.3223C391.287 41.1533 393.73 38.9209 394.029 36.1699H388.193V35.0098H395.523ZM400.463 47.9297V49.0898H389.951V44.0801H391.322V47.9297H400.463ZM421.855 41.5312V42.6387H407.6V41.5312H414.051V39.7031H409.41V34.5352H420.08V35.6426H410.764V38.5781H420.186V39.7031H415.387V41.5312H421.855ZM414.719 43.7812C418.076 43.7812 420.08 44.8008 420.098 46.5938C420.08 48.4043 418.076 49.4062 414.719 49.4238C411.344 49.4062 409.322 48.4043 409.322 46.5938C409.322 44.8008 411.344 43.7812 414.719 43.7812ZM414.719 44.8711C412.205 44.8711 410.711 45.5215 410.729 46.5938C410.711 47.6836 412.205 48.3164 414.719 48.3164C417.197 48.3164 418.709 47.6836 418.709 46.5938C418.709 45.5215 417.197 44.8711 414.719 44.8711ZM435.373 33.7969V38.5605H437.729V39.7207H435.373V45.3281H434.002V33.7969H435.373ZM436.094 47.9297V49.0898H425.6V44.1328H426.953V47.9297H436.094ZM427.551 34.9043C429.889 34.9043 431.646 36.4863 431.664 38.7539C431.646 41.0215 429.889 42.6035 427.551 42.6035C425.213 42.6035 423.438 41.0215 423.455 38.7539C423.438 36.4863 425.213 34.9043 427.551 34.9043ZM427.551 36.1172C426.004 36.1172 424.791 37.207 424.809 38.7539C424.791 40.3008 426.004 41.3906 427.551 41.3906C429.133 41.3906 430.311 40.3008 430.311 38.7539C430.311 37.207 429.133 36.1172 427.551 36.1172ZM456.502 33.8145V43.1133H455.184V38.9824H453.109V43.0078H451.809V34.1133H453.109V37.8398H455.184V33.8145H456.502ZM456.502 43.9922V49.4238H455.148V45.0996H445.973V43.9922H456.502ZM449.998 35.1504V41.918H443.951V35.1504H449.998ZM445.252 36.2402V40.8457H448.715V36.2402H445.252ZM473.025 41.4609V42.5859H466.574V44.4316H471.268V49.4238H469.879V45.5566H460.369V44.4316H465.221V42.5859H458.787V41.4609H473.025ZM462.057 34.166V35.9766H469.791V34.166H471.162V40.002H460.686V34.166H462.057ZM462.057 38.8945H469.791V37.0312H462.057V38.8945ZM493.152 42.8848V44.0273H486.631V49.4238H485.277V44.0273H478.844V42.8848H493.152ZM491.289 34.6758V40.7578H480.689V34.6758H491.289ZM482.043 35.8008V39.668H489.918V35.8008H482.043ZM499.639 36.3281C499.639 38.4551 501.256 40.4062 503.523 41.1797L502.768 42.2695C501.036 41.6367 499.674 40.3447 498.988 38.7188C498.32 40.5557 496.932 42.0059 495.104 42.709L494.365 41.6016C496.703 40.7227 498.268 38.6309 498.285 36.2227V34.6055H499.639V36.3281ZM506.635 33.7969V37.875H508.99V39.0352H506.635V43.3066H505.264V33.7969H506.635ZM501.625 43.7109C504.842 43.7109 506.775 44.748 506.775 46.541C506.775 48.3691 504.842 49.3887 501.625 49.3887C498.408 49.3887 496.439 48.3691 496.439 46.541C496.439 44.748 498.408 43.7109 501.625 43.7109ZM501.625 44.8184C499.27 44.8184 497.811 45.4688 497.828 46.541C497.811 47.6484 499.27 48.2812 501.625 48.2988C503.998 48.2812 505.439 47.6484 505.439 46.541C505.439 45.4688 503.998 44.8184 501.625 44.8184ZM520.082 38.5957C520.082 41.25 522.016 43.9395 524.318 44.9414L523.545 46.0312C521.717 45.1963 520.135 43.3945 519.414 41.2324C518.676 43.5264 517.103 45.5215 515.318 46.418L514.492 45.3281C516.725 44.2559 518.676 41.3027 518.693 38.5957V36.5566H515.002V35.4141H523.809V36.5566H520.082V38.5957ZM527.377 33.7969V49.4238H525.988V33.7969H527.377ZM542.934 33.8145V45.6797H541.545V44.0625H538.311V43.0605H541.545V33.8145H542.934ZM543.32 47.9297V49.0898H532.211V44.5195H533.6V47.9297H543.32ZM529.961 41.0566C532.879 41.0391 536.781 41.0215 540.139 40.5996L540.227 41.6016C538.829 41.8213 537.37 41.9619 535.938 42.041V45.1348H534.549V42.1113C532.967 42.1816 531.464 42.1904 530.154 42.1816L529.961 41.0566ZM535.094 34.4473C537.379 34.4473 538.943 35.5371 538.961 37.1719C538.943 38.8418 537.379 39.8789 535.094 39.8789C532.791 39.8789 531.227 38.8418 531.227 37.1719C531.227 35.5371 532.791 34.4473 535.094 34.4473ZM535.094 35.502C533.564 35.4844 532.527 36.1699 532.545 37.1719C532.527 38.1914 533.564 38.8594 535.094 38.8594C536.57 38.8594 537.625 38.1914 537.643 37.1719C537.625 36.1699 536.57 35.4844 535.094 35.502Z" fill="#C7C9D1"/>
<rect width="200" height="36" transform="translate(956 24)" fill="#E0282F"/>
<path d="M1038.65 33.6914V45.293H1036.68V33.6914H1038.65ZM1039.09 47.666V49.248H1028.14V44.1855H1030.11V47.666H1039.09ZM1031.34 36.1172C1031.34 38.332 1032.64 40.4238 1035.15 41.2676L1034.15 42.8145C1032.34 42.1816 1031.05 40.916 1030.35 39.2988C1029.63 41.0303 1028.32 42.4189 1026.45 43.0957L1025.43 41.5488C1028.02 40.6348 1029.32 38.4023 1029.32 36.1172V34.5703H1031.34V36.1172ZM1046.68 37.0664C1046.68 38.8066 1048.04 40.5293 1050.53 41.1973L1049.62 42.709C1047.78 42.208 1046.46 41.1357 1045.73 39.7559C1045.05 41.3203 1043.72 42.5508 1041.83 43.1133L1040.92 41.6016C1043.4 40.8457 1044.73 38.9824 1044.73 37.0664V36.9785H1041.41V35.4316H1044.73V33.6035H1046.7V35.4316H1050.01V36.9785H1046.68V37.0664ZM1054.28 33.6738V43.2891H1052.33V39.6152H1049.53V38.0332H1052.33V33.6738H1054.28ZM1048.9 43.6055C1052.26 43.6055 1054.33 44.6777 1054.33 46.5586C1054.33 48.457 1052.26 49.5469 1048.9 49.5469C1045.56 49.5469 1043.48 48.457 1043.5 46.5586C1043.48 44.6777 1045.56 43.6055 1048.9 43.6055ZM1048.9 45.0996C1046.68 45.1172 1045.44 45.6094 1045.44 46.5586C1045.44 47.5078 1046.68 48.0352 1048.9 48.0352C1051.15 48.0352 1052.38 47.5078 1052.38 46.5586C1052.38 45.6094 1051.15 45.1172 1048.9 45.0996ZM1068.97 33.6738V40.002H1071.42V41.6191H1068.97V49.5645H1067.04V33.6738H1068.97ZM1065.81 36.1172V37.6816H1056.44V36.1172H1060.2V33.9023H1062.15V36.1172H1065.81ZM1061.19 38.7188C1063.47 38.7188 1065.18 40.2656 1065.18 42.4629C1065.18 44.6602 1063.47 46.1895 1061.19 46.1895C1058.87 46.1895 1057.16 44.6602 1057.18 42.4629C1057.16 40.2656 1058.87 38.7188 1061.19 38.7188ZM1061.19 40.3184C1059.94 40.3184 1059.04 41.1621 1059.04 42.4629C1059.04 43.7637 1059.94 44.5898 1061.19 44.5723C1062.4 44.5898 1063.29 43.7637 1063.31 42.4629C1063.29 41.1621 1062.4 40.3184 1061.19 40.3184ZM1085.36 33.6738V49.5645H1083.39V33.6738H1085.36ZM1080.61 35.3613C1080.61 40.0898 1078.78 44.1152 1073.21 46.752L1072.19 45.1875C1076.35 43.21 1078.28 40.5205 1078.62 36.9082H1073V35.3613H1080.61Z" fill="#F8F9FA"/>
</svg>
