<svg width="160" height="36" viewBox="0 0 160 36" fill="none" xmlns="http://www.w3.org/2000/svg">
<path d="M0 20.2883V14.9529H23.8126V20.2883H15.1698V35.7041H8.66901V20.2883H0Z" fill="white"/>
<path d="M26.6455 14.9529H46.1728V20.141H33.1463V22.8094H43.956V27.4044H33.1463V30.5173H46.1728V35.7054H26.6455V14.9529Z" fill="white"/>
<path d="M64.5187 27.6003H71.0195C71.0195 32.7385 66.6109 36 59.9135 36C52.575 36 47.8479 31.8245 47.8479 25.3278C47.8479 18.8311 52.5764 14.6556 59.9135 14.6556C66.6109 14.6556 71.0195 17.9158 71.0195 23.0553H64.5187C64.2722 21.2273 62.6716 19.9924 59.865 19.9924C56.3688 19.9924 54.3736 21.919 54.3736 25.3041C54.3736 28.6892 56.5156 30.6646 60.0616 30.6646C62.745 30.6646 64.2722 29.4297 64.5187 27.6016V27.6003Z" fill="white"/>
<path d="M73.2375 14.9529H79.7383V22.2649H88.7508V14.9529H95.2515V35.7041H88.7508V27.6017H79.7383V35.7041H73.2375V14.9529Z" fill="white"/>
<path d="M102.753 27.6003V14.9515H109.253V27.4517C109.253 29.4283 110.879 30.5146 113.809 30.5146C116.739 30.5146 118.341 29.4283 118.341 27.4517V14.9515H124.841V27.6003C124.841 32.9358 120.827 36 113.81 36C106.793 36 102.753 32.9371 102.753 27.6003Z" fill="white"/>
<path d="M127.674 14.9529H141.662C146.192 14.9529 149 17.6449 149 22.0677C149 26.4904 146.045 29.7256 141.662 29.7256H134.176V35.7041H127.676V14.9529H127.674ZM139.74 24.6861C141.512 24.6861 142.498 23.8707 142.498 22.4872C142.498 21.1037 141.464 20.2883 139.74 20.2883H134.175V24.6861H139.74Z" fill="white"/>
<path d="M10.2564 8.77709L8.22063 6.26916L11.1767 2.6184H9.5643C8.83937 2.6184 8.34516 2.84065 7.9047 3.35618L6.34734 5.27756V0H4.78475C4.419 0 4.12012 0.298531 4.12012 0.668079V10.5144H5.68141C6.04977 10.5144 6.34734 10.2145 6.34734 9.84628V7.22657L7.61368 8.78366L8.68862 10.1119C8.90623 10.3868 9.19201 10.5144 9.48434 10.5144H11.6656L10.2564 8.77577V8.77709Z" fill="white"/>
<path d="M14.2613 10.5157C13.0605 10.5157 12.2268 9.6832 12.2268 8.47461V0.668079C12.2268 0.298532 12.5257 0 12.8954 0H14.458V8.05509C14.458 8.3865 14.7267 8.6561 15.0544 8.6561H16.6459V9.84759C16.6459 10.2171 16.347 10.5157 15.9786 10.5157H14.2613Z" fill="white"/>
<path d="M16.9671 2.03711L16.8308 2.18177C16.8229 2.1844 16.4061 2.61445 15.2026 2.61445H9.52252C8.62586 2.61445 8.20375 2.98136 7.88126 3.37721L7.70298 3.59684C7.70298 3.59684 7.69381 3.60604 7.68987 3.6113L6.5625 5.0027C6.97281 4.69233 7.53519 4.5069 8.10805 4.5069H15.2026C16.0652 4.5069 16.8911 4.25045 16.9593 3.60473C16.9671 3.55344 16.9671 3.52056 16.9671 3.52056V2.03711Z" fill="#E0282F"/>
<path d="M20.4448 9.79887C19.9912 9.23205 19.7644 8.39695 19.7644 7.29357C19.7644 6.19019 20.0436 5.43399 20.6008 4.90269C21.1579 4.37138 21.9235 4.10573 22.8936 4.10573C23.608 4.10573 24.0734 4.06233 24.2897 3.9729V5.03551C24.2897 5.1644 24.1809 5.25514 23.9659 5.30643C23.7483 5.35903 23.4284 5.38534 23.0024 5.38534C22.36 5.38534 21.9012 5.54183 21.6233 5.85615C21.3467 6.17046 21.209 6.65311 21.209 7.30541C21.209 8.68102 21.698 9.37014 22.6773 9.37014C23.4232 9.37014 24.0419 9.25309 24.5309 9.02032V10.0106C24.5309 10.1789 24.4457 10.3039 24.2779 10.3854C24.1573 10.4577 23.9305 10.5196 23.5975 10.5722C23.2645 10.6248 22.9735 10.6511 22.7258 10.6511C21.6587 10.6511 20.8984 10.367 20.4461 9.80018L20.4448 9.79887Z" fill="#E0282F"/>
<path d="M26.0031 10.2224C25.775 9.93698 25.6597 9.48852 25.6597 8.87568V1.7175C25.6597 1.48472 25.7803 1.36768 26.0202 1.36768H27.0794V8.86384C27.0794 9.23339 27.2039 9.41882 27.4517 9.41882C27.6601 9.41882 27.8371 9.39909 27.9813 9.35832V10.1908C27.9813 10.2789 27.959 10.3539 27.9157 10.4144C27.8712 10.4749 27.8135 10.5169 27.7414 10.5406C27.5408 10.6129 27.352 10.6498 27.1751 10.6498C26.6219 10.6498 26.2312 10.5064 26.0018 10.221L26.0031 10.2224Z" fill="#E0282F"/>
<path d="M29.3853 9.87782C28.899 9.36229 28.6565 8.51799 28.6565 7.34227C28.6565 6.16656 28.899 5.31831 29.3853 4.79489C29.8704 4.27147 30.5743 4.00977 31.4972 4.00977C32.4201 4.00977 33.1253 4.27147 33.6156 4.79489C34.1046 5.31831 34.3497 6.16656 34.3497 7.34227C34.3497 8.51799 34.1059 9.36229 33.6156 9.87782C33.1253 10.392 32.4201 10.6498 31.4972 10.6498C30.5743 10.6498 29.8704 10.392 29.3853 9.87782ZM32.563 8.91121C32.7911 8.6061 32.9051 8.08268 32.9051 7.34227C32.9051 6.60186 32.7911 6.0745 32.563 5.76019C32.3336 5.44587 31.9783 5.28937 31.4972 5.28937C31.0161 5.28937 30.6622 5.44587 30.438 5.76019C30.2138 6.0745 30.1011 6.60186 30.1011 7.34227C30.1011 8.08268 30.2125 8.6061 30.438 8.91121C30.6622 9.21763 31.0161 9.37018 31.4972 9.37018C31.9783 9.37018 32.3336 9.21763 32.563 8.91121Z" fill="#E0282F"/>
<path d="M36.2018 10.1368C35.8007 9.79491 35.6001 9.26623 35.6001 8.54949V4.40819C35.6001 4.20698 35.7011 4.10571 35.9003 4.10571H37.0198V8.22203C37.0198 9.00321 37.341 9.3938 37.982 9.3938C38.2311 9.3938 38.4526 9.35303 38.6493 9.27281C38.8459 9.19258 39.0727 9.07159 39.3296 8.91115V5.55497C39.3296 5.16833 39.3414 4.87506 39.3663 4.67384C39.3899 4.47263 39.4358 4.32797 39.5053 4.23986C39.5735 4.15174 39.6757 4.10703 39.8121 4.10703H40.9303C40.8097 4.40556 40.7507 4.86322 40.7507 5.48396V10.1684C40.7507 10.4012 40.634 10.5182 40.402 10.5182H39.331V10.1566C39.0583 10.317 38.8092 10.4406 38.585 10.5248C38.3596 10.609 38.1039 10.6524 37.8142 10.6524C37.1404 10.6524 36.603 10.4814 36.2018 10.1395V10.1368Z" fill="#E0282F"/>
<path d="M42.6765 9.841C42.2662 9.3018 42.063 8.51273 42.063 7.4751C42.063 5.16576 43.0737 4.01109 45.0964 4.01109C45.4176 4.01109 45.7178 4.04791 45.9996 4.12024V2.81696C45.9996 2.42243 46.0114 2.12653 46.035 1.93057C46.0586 1.73331 46.1019 1.58996 46.1674 1.50185C46.2317 1.41373 46.3365 1.36902 46.4807 1.36902H47.5989C47.4796 1.65834 47.4193 2.11732 47.4193 2.74463V10.1698C47.4193 10.4026 47.2987 10.5196 47.0575 10.5196H45.9983V10.1698C45.5172 10.492 45.0073 10.6524 44.4698 10.6524C43.6833 10.6524 43.0855 10.3828 42.6765 9.84363V9.841ZM45.4504 9.22553C45.6863 9.12952 45.8699 9.00459 45.9983 8.85072V5.39854C45.7493 5.3262 45.4844 5.28938 45.2039 5.28938C44.7071 5.28938 44.2994 5.43667 43.9835 5.72995C43.6662 6.02322 43.5076 6.6137 43.5076 7.49878C43.5076 8.10242 43.6203 8.56534 43.8445 8.88754C44.0687 9.20974 44.3898 9.37019 44.8067 9.37019C44.9994 9.37019 45.2144 9.32153 45.4504 9.22553Z" fill="#E0282F"/>
</svg>
