<svg width="280" height="608" viewBox="0 0 280 608" fill="none" xmlns="http://www.w3.org/2000/svg">
<rect width="280" height="608" fill="white"/>
<path d="M64.8594 70.625V72H56.4844V70.625H59.8125V69.2031H61.5469V70.625H64.8594ZM60.6719 72.5469C62.7188 72.5469 64.1094 73.5781 64.125 75.125C64.1094 76.6719 62.7188 77.7031 60.6719 77.7031C58.625 77.7031 57.2031 76.6719 57.2031 75.125C57.2031 73.5781 58.625 72.5469 60.6719 72.5469ZM60.6719 73.8594C59.5938 73.8594 58.8906 74.3281 58.8906 75.125C58.8906 75.9219 59.5938 76.375 60.6719 76.3594C61.75 76.375 62.4688 75.9219 62.4688 75.125C62.4688 74.3281 61.75 73.8594 60.6719 73.8594ZM67.6094 69.2656V73.0156H69.5781V74.4375H67.6094V78.1094H65.875V69.2656H67.6094ZM67.6094 78.7656V83.3906H65.875V80.1562H58.2031V78.7656H67.6094ZM73.5625 77.7344V79.0781H79.7812V77.7344H81.5156V83.2188H71.8438V77.7344H73.5625ZM73.5625 81.8438H79.7812V80.4062H73.5625V81.8438ZM83.1719 75.5156V76.9375H70.2969V75.5156H83.1719ZM77.625 69.9531C77.625 71.4688 79.5625 73.0625 82.4844 73.4062L81.875 74.7812C79.5078 74.4609 77.6406 73.4141 76.7344 71.9844C75.8203 73.4219 73.9453 74.4609 71.5938 74.7812L70.9531 73.4062C73.9062 73.0469 75.8281 71.5156 75.8438 69.9531V69.4219H77.625V69.9531ZM94.2812 78.0938C97.3438 78.1094 99.2812 79.0781 99.2969 80.75C99.2812 82.3906 97.3438 83.375 94.2812 83.375C91.2344 83.375 89.2812 82.3906 89.2812 80.75C89.2812 79.0781 91.2344 78.1094 94.2812 78.0938ZM94.2812 79.4062C92.25 79.4062 91.0156 79.8906 91.0312 80.75C91.0156 81.5781 92.25 82.0312 94.2812 82.0312C96.3281 82.0312 97.5625 81.5781 97.5781 80.75C97.5625 79.8906 96.3281 79.4062 94.2812 79.4062ZM99.2031 69.9375V71.1094C99.2031 72.2188 99.2031 73.4062 98.8125 74.8594L97.0938 74.7031C97.4453 73.3281 97.4688 72.3359 97.4688 71.3125H89.4219V69.9375H99.2031ZM100.766 75.6719V77.0781H87.9531V75.6719H92.9219V73.1094H94.6406V75.6719H100.766ZM112.891 69.2656V73.3281H114.859V74.7812H112.891V79.4531H111.125V69.2656H112.891ZM109.047 70.3438C109.047 74.0938 106.609 76.7656 102.422 77.9844L101.703 76.6094C104.93 75.6797 106.852 73.9219 107.156 71.7656H102.297V70.3438H109.047ZM113.422 81.7031V83.1094H103.812V78.4062H105.578V81.7031H113.422Z" fill="#8C8F9E"/>
<line x1="56" y1="95.5" x2="224" y2="95.5" stroke="#D6D6DD"/>
<rect width="16" height="16" transform="translate(56 116)" fill="#D6D6DD"/>
<path d="M94.8906 118.062C97.9219 118.062 100.156 119.578 100.156 121.875C100.156 123.992 98.3359 125.406 95.75 125.656V128.25H101.375V129.672H88.4688V128.25H94.0312V125.656C91.4609 125.406 89.6406 123.992 89.6562 121.875C89.6406 119.578 91.875 118.062 94.8906 118.062ZM94.8906 119.469C92.8281 119.453 91.3438 120.391 91.3594 121.875C91.3438 123.406 92.8281 124.312 94.8906 124.312C96.9844 124.312 98.4531 123.406 98.4531 121.875C98.4531 120.391 96.9844 119.453 94.8906 119.469ZM115.203 128.234V129.688H102.297V128.234H115.203ZM114.078 118.578V119.969H112.016V124.469H114.031V125.844H103.406V124.469H105.391V119.969H103.359V118.578H114.078ZM107.125 124.469H110.297V119.969H107.125V124.469ZM127.188 117.266V122.688H129.359V124.141H127.188V131.406H125.469V117.266H127.188ZM123.188 118.5V123.828H118.438V126.641C120.672 126.625 122.414 126.531 124.391 126.188L124.547 127.594C122.375 127.984 120.438 128.078 117.875 128.078H116.719V122.438H121.453V119.906H116.688V118.5H123.188ZM141.719 117.281V127.484H139.969V117.281H141.719ZM142.109 129.703V131.109H132.375V126.453H134.125V129.703H142.109ZM134.016 118.203C136.156 118.203 137.812 119.688 137.812 121.734C137.812 123.828 136.156 125.281 134.016 125.281C131.859 125.281 130.203 123.828 130.203 121.734C130.203 119.688 131.859 118.203 134.016 118.203ZM134.016 119.719C132.812 119.719 131.891 120.516 131.906 121.734C131.891 122.984 132.812 123.766 134.016 123.766C135.188 123.766 136.109 122.984 136.109 121.734C136.109 120.516 135.188 119.719 134.016 119.719ZM159.156 118.562V120C159.156 121.75 159.156 123.656 158.641 126.422L156.938 126.25C157.422 123.641 157.422 121.703 157.422 120V119.953H148.875V118.562H159.156ZM160.453 128.141V129.562H147.578V128.141H150.469V123.641H152.203V128.141H154V123.641H155.703V128.141H160.453ZM174.281 123.938V125.328H171.062V126.797H172.703V131.391H170.969V128.156H162.828V126.797H164.578V125.328H161.406V123.938H174.281ZM167.828 117.562C170.922 117.562 172.906 118.609 172.922 120.312C172.906 122.031 170.922 123.078 167.828 123.078C164.734 123.078 162.734 122.031 162.734 120.312C162.734 118.609 164.734 117.562 167.828 117.562ZM167.828 118.922C165.766 118.922 164.531 119.422 164.547 120.312C164.531 121.234 165.766 121.734 167.828 121.734C169.891 121.734 171.125 121.234 171.125 120.312C171.125 119.422 169.891 118.922 167.828 118.922ZM166.312 126.797H169.344V125.328H166.312V126.797ZM180.297 119.812C180.297 121.547 181.422 123.172 183.625 123.844L182.797 125.203C181.211 124.711 180.086 123.703 179.469 122.422C178.844 123.906 177.648 125.086 175.953 125.656L175.078 124.281C177.359 123.531 178.547 121.703 178.547 119.828V119.656H175.562V118.25H183.234V119.656H180.297V119.812ZM186.375 117.266V120.656H188.344V122.078H186.375V125.688H184.641V117.266H186.375ZM181.781 126C184.703 126 186.5 126.984 186.516 128.672C186.5 130.375 184.703 131.375 181.781 131.375C178.828 131.375 177 130.375 177 128.672C177 126.984 178.828 126 181.781 126ZM181.781 127.359C179.844 127.359 178.734 127.812 178.734 128.672C178.734 129.547 179.844 130.016 181.781 130.016C183.719 130.016 184.797 129.547 184.797 128.672C184.797 127.812 183.719 127.359 181.781 127.359Z" fill="#525866"/>
<rect width="16" height="16" transform="translate(56 156)" fill="#D6D6DD"/>
<path d="M94.4531 158.797V162.469H96.0938V157.516H97.75V170.703H96.0938V163.875H94.4531V167.75H88.9062V158.797H94.4531ZM90.5312 160.172V166.375H92.8281V160.172H90.5312ZM100.656 157.266V171.391H98.9844V157.266H100.656ZM109.547 158.484V159.906H104.641V162.422H109.297V163.797H104.641V166.703C106.812 166.688 108.508 166.609 110.484 166.281L110.641 167.688C108.469 168.031 106.578 168.109 104.047 168.109H102.875V158.484H109.547ZM113.359 157.266V162.734H115.531V164.188H113.359V171.391H111.625V157.266H113.359ZM118.5 158.109V160.219H121.656V158.109H123.375V160.797H126.219V157.266H127.953V165.688H126.219V162.219H123.375V164.969H116.766V158.109H118.5ZM118.5 163.562H121.656V161.562H118.5V163.562ZM127.953 166.328V171.391H126.219V167.734H118.328V166.328H127.953ZM137.25 159.203C137.25 161.391 139.391 163.578 142.344 164.094L141.562 165.547C139.195 165.047 137.258 163.617 136.344 161.719C135.406 163.602 133.469 165.039 131.109 165.547L130.344 164.094C133.266 163.562 135.391 161.375 135.406 159.203V158.156H137.25V159.203ZM142.859 168.156V169.594H129.953V168.156H142.859ZM159.156 158.562V160C159.156 161.75 159.156 163.656 158.641 166.422L156.938 166.25C157.422 163.641 157.422 161.703 157.422 160V159.953H148.875V158.562H159.156ZM160.453 168.141V169.562H147.578V168.141H150.469V163.641H152.203V168.141H154V163.641H155.703V168.141H160.453ZM174.281 163.938V165.328H171.062V166.797H172.703V171.391H170.969V168.156H162.828V166.797H164.578V165.328H161.406V163.938H174.281ZM167.828 157.562C170.922 157.562 172.906 158.609 172.922 160.312C172.906 162.031 170.922 163.078 167.828 163.078C164.734 163.078 162.734 162.031 162.734 160.312C162.734 158.609 164.734 157.562 167.828 157.562ZM167.828 158.922C165.766 158.922 164.531 159.422 164.547 160.312C164.531 161.234 165.766 161.734 167.828 161.734C169.891 161.734 171.125 161.234 171.125 160.312C171.125 159.422 169.891 158.922 167.828 158.922ZM166.312 166.797H169.344V165.328H166.312V166.797ZM180.297 159.812C180.297 161.547 181.422 163.172 183.625 163.844L182.797 165.203C181.211 164.711 180.086 163.703 179.469 162.422C178.844 163.906 177.648 165.086 175.953 165.656L175.078 164.281C177.359 163.531 178.547 161.703 178.547 159.828V159.656H175.562V158.25H183.234V159.656H180.297V159.812ZM186.375 157.266V160.656H188.344V162.078H186.375V165.688H184.641V157.266H186.375ZM181.781 166C184.703 166 186.5 166.984 186.516 168.672C186.5 170.375 184.703 171.375 181.781 171.375C178.828 171.375 177 170.375 177 168.672C177 166.984 178.828 166 181.781 166ZM181.781 167.359C179.844 167.359 178.734 167.812 178.734 168.672C178.734 169.547 179.844 170.016 181.781 170.016C183.719 170.016 184.797 169.547 184.797 168.672C184.797 167.812 183.719 167.359 181.781 167.359Z" fill="#525866"/>
<rect width="216" height="32" transform="translate(32 148)" fill="#ED1B23"/>
<rect width="16" height="16" transform="translate(56 156)" fill="white"/>
<path d="M94.4531 158.797V162.469H96.0938V157.516H97.75V170.703H96.0938V163.875H94.4531V167.75H88.9062V158.797H94.4531ZM90.5312 160.172V166.375H92.8281V160.172H90.5312ZM100.656 157.266V171.391H98.9844V157.266H100.656ZM109.547 158.484V159.906H104.641V162.422H109.297V163.797H104.641V166.703C106.812 166.688 108.508 166.609 110.484 166.281L110.641 167.688C108.469 168.031 106.578 168.109 104.047 168.109H102.875V158.484H109.547ZM113.359 157.266V162.734H115.531V164.188H113.359V171.391H111.625V157.266H113.359ZM127.969 157.266V171.406H126.25V163.75H123.375V167.984H116.656V158.359H118.406V161.875H121.672V158.359H123.375V162.328H126.25V157.266H127.969ZM118.406 166.594H121.672V163.234H118.406V166.594ZM137.25 159.203C137.25 161.391 139.391 163.578 142.344 164.094L141.562 165.547C139.195 165.047 137.258 163.617 136.344 161.719C135.406 163.602 133.469 165.039 131.109 165.547L130.344 164.094C133.266 163.562 135.391 161.375 135.406 159.203V158.156H137.25V159.203ZM142.859 168.156V169.594H129.953V168.156H142.859ZM159.156 158.562V160C159.156 161.75 159.156 163.656 158.641 166.422L156.938 166.25C157.422 163.641 157.422 161.703 157.422 160V159.953H148.875V158.562H159.156ZM160.453 168.141V169.562H147.578V168.141H150.469V163.641H152.203V168.141H154V163.641H155.703V168.141H160.453ZM174.281 163.938V165.328H171.062V166.797H172.703V171.391H170.969V168.156H162.828V166.797H164.578V165.328H161.406V163.938H174.281ZM167.828 157.562C170.922 157.562 172.906 158.609 172.922 160.312C172.906 162.031 170.922 163.078 167.828 163.078C164.734 163.078 162.734 162.031 162.734 160.312C162.734 158.609 164.734 157.562 167.828 157.562ZM167.828 158.922C165.766 158.922 164.531 159.422 164.547 160.312C164.531 161.234 165.766 161.734 167.828 161.734C169.891 161.734 171.125 161.234 171.125 160.312C171.125 159.422 169.891 158.922 167.828 158.922ZM166.312 166.797H169.344V165.328H166.312V166.797ZM180.297 159.812C180.297 161.547 181.422 163.172 183.625 163.844L182.797 165.203C181.211 164.711 180.086 163.703 179.469 162.422C178.844 163.906 177.648 165.086 175.953 165.656L175.078 164.281C177.359 163.531 178.547 161.703 178.547 159.828V159.656H175.562V158.25H183.234V159.656H180.297V159.812ZM186.375 157.266V160.656H188.344V162.078H186.375V165.688H184.641V157.266H186.375ZM181.781 166C184.703 166 186.5 166.984 186.516 168.672C186.5 170.375 184.703 171.375 181.781 171.375C178.828 171.375 177 170.375 177 168.672C177 166.984 178.828 166 181.781 166ZM181.781 167.359C179.844 167.359 178.734 167.812 178.734 168.672C178.734 169.547 179.844 170.016 181.781 170.016C183.719 170.016 184.797 169.547 184.797 168.672C184.797 167.812 183.719 167.359 181.781 167.359Z" fill="white"/>
<path d="M64.8594 214.625V216H56.4844V214.625H59.8125V213.203H61.5469V214.625H64.8594ZM60.6719 216.547C62.7188 216.547 64.1094 217.578 64.125 219.125C64.1094 220.672 62.7188 221.703 60.6719 221.703C58.625 221.703 57.2031 220.672 57.2031 219.125C57.2031 217.578 58.625 216.547 60.6719 216.547ZM60.6719 217.859C59.5938 217.859 58.8906 218.328 58.8906 219.125C58.8906 219.922 59.5938 220.375 60.6719 220.359C61.75 220.375 62.4688 219.922 62.4688 219.125C62.4688 218.328 61.75 217.859 60.6719 217.859ZM67.6094 213.266V217.016H69.5781V218.438H67.6094V222.109H65.875V213.266H67.6094ZM67.6094 222.766V227.391H65.875V224.156H58.2031V222.766H67.6094ZM73.5625 221.734V223.078H79.7812V221.734H81.5156V227.219H71.8438V221.734H73.5625ZM73.5625 225.844H79.7812V224.406H73.5625V225.844ZM83.1719 219.516V220.938H70.2969V219.516H83.1719ZM77.625 213.953C77.625 215.469 79.5625 217.062 82.4844 217.406L81.875 218.781C79.5078 218.461 77.6406 217.414 76.7344 215.984C75.8203 217.422 73.9453 218.461 71.5938 218.781L70.9531 217.406C73.9062 217.047 75.8281 215.516 75.8438 213.953V213.422H77.625V213.953ZM93.25 217.281C93.25 219.594 94.6094 222.031 96.8906 222.984L95.9375 224.359C94.2656 223.641 93.0469 222.156 92.4062 220.359C91.75 222.297 90.5156 223.922 88.8594 224.703L87.8594 223.344C90.0938 222.312 91.4844 219.688 91.4844 217.281V216.094H88.375V214.656H96.3438V216.094H93.25V217.281ZM99.6719 213.266V227.391H97.9219V213.266H99.6719ZM113.594 213.281V223.969H111.844V222.734H109.078V221.516H111.844V213.281H113.594ZM113.922 225.703V227.109H103.562V222.938H105.297V225.703H113.922ZM101.688 219.625C104.297 219.609 107.797 219.578 110.797 219.203L110.891 220.453C109.727 220.648 108.523 220.781 107.328 220.859V223.578H105.594V220.953C104.273 221.008 103.016 221.016 101.906 221.016L101.688 219.625ZM106.297 213.797C108.359 213.797 109.797 214.812 109.812 216.297C109.797 217.812 108.359 218.781 106.297 218.781C104.203 218.781 102.766 217.812 102.766 216.297C102.766 214.812 104.203 213.797 106.297 213.797ZM106.297 215.078C105.172 215.078 104.406 215.531 104.406 216.297C104.406 217.062 105.172 217.516 106.297 217.516C107.375 217.516 108.141 217.062 108.156 216.297C108.141 215.531 107.375 215.078 106.297 215.078Z" fill="#8C8F9E"/>
<line x1="56" y1="239.5" x2="224" y2="239.5" stroke="#D6D6DD"/>
<rect width="16" height="16" transform="translate(56 260)" fill="#D6D6DD"/>
<path d="M101.375 272.234V273.688H88.4688V272.234H101.375ZM100.25 262.578V263.969H98.1875V268.469H100.203V269.844H89.5781V268.469H91.5625V263.969H89.5312V262.578H100.25ZM93.2969 268.469H96.4688V263.969H93.2969V268.469ZM115.203 272.312V273.75H102.297V272.312H107.859V270.016H103.828V265.391H111.953V263.641H103.797V262.234H113.672V266.766H105.562V268.594H114V270.016H109.578V272.312H115.203ZM125.422 261.562V269.781H123.766V266.219H122V264.812H123.766V261.562H125.422ZM120.484 264.297C120.484 265.812 121.328 267.344 123.125 268.062L122.25 269.391C121 268.906 120.156 268 119.672 266.906C119.156 268.133 118.258 269.141 116.922 269.688L116.016 268.328C117.906 267.578 118.797 265.906 118.797 264.297V263.734H116.422V262.344H122.719V263.734H120.484V264.297ZM128.203 261.266V269.875H126.547V261.266H128.203ZM128.203 270.438V275.391H126.469V271.828H118.531V270.438H128.203ZM141.438 268.672V270.047H131.531V262.375H141.312V263.781H133.297V265.484H140.984V266.844H133.297V268.672H141.438ZM142.859 272.25V273.672H129.953V272.25H142.859ZM159.344 261.281V271.484H157.594V261.281H159.344ZM159.734 273.703V275.109H150V270.453H151.75V273.703H159.734ZM151.641 262.203C153.781 262.203 155.438 263.688 155.438 265.734C155.438 267.828 153.781 269.281 151.641 269.281C149.484 269.281 147.828 267.828 147.828 265.734C147.828 263.688 149.484 262.203 151.641 262.203ZM151.641 263.719C150.438 263.719 149.516 264.516 149.531 265.734C149.516 266.984 150.438 267.766 151.641 267.766C152.812 267.766 153.734 266.984 153.734 265.734C153.734 264.516 152.812 263.719 151.641 263.719ZM174.312 272.234V273.688H161.406V272.234H174.312ZM173.188 262.578V263.969H171.125V268.469H173.141V269.844H162.516V268.469H164.5V263.969H162.469V262.578H173.188ZM166.234 268.469H169.406V263.969H166.234V268.469ZM186.297 261.266V266.688H188.469V268.141H186.297V275.406H184.578V261.266H186.297ZM182.297 262.5V267.828H177.547V270.641C179.781 270.625 181.523 270.531 183.5 270.188L183.656 271.594C181.484 271.984 179.547 272.078 176.984 272.078H175.828V266.438H180.562V263.906H175.797V262.5H182.297Z" fill="#525866"/>
<rect width="16" height="16" transform="translate(56 300)" fill="#D6D6DD"/>
<path d="M92.875 303.891C92.875 305.422 93.7656 306.953 95.625 307.656L94.7031 308.984C93.4453 308.5 92.5703 307.602 92.0625 306.5C91.5469 307.766 90.625 308.844 89.2812 309.406L88.3438 308.078C90.2812 307.219 91.1875 305.453 91.2031 303.891V302.141H92.875V303.891ZM100.547 301.281V309.938H98.8906V306.266H97.4844V309.5H95.8594V301.547H97.4844V304.844H98.8906V301.281H100.547ZM95.7812 310.172C98.7344 310.172 100.609 311.141 100.625 312.766C100.609 314.391 98.7344 315.375 95.7812 315.375C92.7969 315.375 90.9375 314.391 90.9375 312.766C90.9375 311.141 92.7969 310.172 95.7812 310.172ZM95.7812 311.484C93.8281 311.484 92.6719 311.938 92.6719 312.766C92.6719 313.609 93.8281 314.047 95.7812 314.047C97.7188 314.047 98.875 313.609 98.875 312.766C98.875 311.938 97.7188 311.484 95.7812 311.484ZM107.469 303.297C107.453 305.219 108.578 306.969 110.797 307.672L109.859 309.031C108.32 308.492 107.242 307.469 106.641 306.125C106.016 307.664 104.836 308.875 103.125 309.469L102.203 308.062C104.547 307.297 105.719 305.406 105.719 303.375V302.031H107.469V303.297ZM114.125 301.266V309.578H112.391V305.422H109.578V304H112.391V301.266H114.125ZM109.344 309.953C112.344 309.953 114.172 310.953 114.172 312.672C114.172 314.391 112.344 315.375 109.344 315.375C106.359 315.375 104.531 314.391 104.547 312.672C104.531 310.953 106.359 309.953 109.344 309.953ZM109.344 311.297C107.375 311.297 106.266 311.781 106.266 312.672C106.266 313.531 107.375 314.016 109.344 314.016C111.312 314.016 112.438 313.531 112.438 312.672C112.438 311.781 111.312 311.297 109.344 311.297ZM124.047 302.672V304.047H116.156V302.672H119.312V301.141H121.047V302.672H124.047ZM120.156 304.609C122.078 304.609 123.453 305.672 123.469 307.25C123.453 308.812 122.078 309.859 120.156 309.859C118.234 309.859 116.875 308.812 116.891 307.25C116.875 305.672 118.234 304.609 120.156 304.609ZM120.156 305.906C119.156 305.906 118.5 306.406 118.516 307.25C118.5 308.078 119.156 308.562 120.156 308.562C121.156 308.562 121.844 308.078 121.844 307.25C121.844 306.406 121.156 305.906 120.156 305.906ZM127.953 301.266V310.312H126.219V308.656H124.125V307.266H126.219V305.875H124.141V304.469H126.219V301.266H127.953ZM123.203 310.469C126.188 310.469 128.031 311.375 128.031 312.922C128.031 314.453 126.188 315.375 123.203 315.375C120.219 315.375 118.375 314.453 118.375 312.922C118.375 311.375 120.219 310.469 123.203 310.469ZM123.203 311.797C121.297 311.797 120.203 312.172 120.203 312.922C120.203 313.656 121.297 314.047 123.203 314.047C125.094 314.047 126.172 313.656 126.172 312.922C126.172 312.172 125.094 311.797 123.203 311.797ZM135.766 314H133.594L137.578 302.688H140.078L144.078 314H141.906L140.969 311.203H136.703L135.766 314ZM137.25 309.562H140.422L138.875 305H138.781L137.25 309.562ZM147.453 302.688V314H145.422V302.688H147.453ZM164.25 307.688V309.062H160.062V312.297H165.688V313.719H152.781V312.297H158.344V309.062H154.344V302.312H164.141V303.703H156.078V307.688H164.25ZM177.906 302.125V303.391C177.906 304.711 177.906 306.156 177.531 308.156H179.484V309.562H173.875V315.406H172.125V309.562H166.609V308.156H175.766C176.156 306.234 176.172 304.797 176.172 303.531H168.125V302.125H177.906Z" fill="#525866"/>
<rect width="16" height="16" transform="translate(56 340)" fill="#D6D6DD"/>
<path d="M100.234 341.281V351.484H98.4844V341.281H100.234ZM100.625 353.703V355.109H90.8906V350.453H92.6406V353.703H100.625ZM92.5312 342.203C94.6719 342.203 96.3281 343.688 96.3281 345.734C96.3281 347.828 94.6719 349.281 92.5312 349.281C90.375 349.281 88.7188 347.828 88.7188 345.734C88.7188 343.688 90.375 342.203 92.5312 342.203ZM92.5312 343.719C91.3281 343.719 90.4062 344.516 90.4219 345.734C90.4062 346.984 91.3281 347.766 92.5312 347.766C93.7031 347.766 94.625 346.984 94.625 345.734C94.625 344.516 93.7031 343.719 92.5312 343.719ZM115.203 352.234V353.688H102.297V352.234H115.203ZM114.078 342.578V343.969H112.016V348.469H114.031V349.844H103.406V348.469H105.391V343.969H103.359V342.578H114.078ZM107.125 348.469H110.297V343.969H107.125V348.469ZM123.047 342.234V346.609H118.422V348.391C120.758 348.383 122.32 348.305 124.078 348.016L124.219 349.438C122.266 349.734 120.547 349.797 117.828 349.797H116.672V345.266H121.312V343.625H116.656V342.234H123.047ZM127.953 341.281V351.672H126.219V346.234H123.812V344.766H126.219V341.281H127.953ZM128.328 353.703V355.109H118.609V350.844H120.344V353.703H128.328ZM144.891 341.266V344.703H146.859V346.125H144.891V349.547H143.156V341.266H144.891ZM140.984 342.234C140.984 345.953 138.562 348.578 134.391 349.766L133.703 348.359C136.906 347.484 138.805 345.758 139.109 343.641H134.344V342.234H140.984ZM140.328 349.719C143.188 349.719 145.047 350.812 145.047 352.547C145.047 354.312 143.188 355.375 140.328 355.375C137.484 355.375 135.594 354.312 135.609 352.547C135.594 350.812 137.484 349.719 140.328 349.719ZM140.328 351.078C138.469 351.078 137.312 351.609 137.328 352.547C137.312 353.469 138.469 354.016 140.328 354.016C142.188 354.016 143.344 353.469 143.344 352.547C143.344 351.609 142.188 351.078 140.328 351.078ZM152.156 342.25C154.391 342.234 156.031 343.656 156.047 345.656C156.031 347.672 154.391 349.078 152.156 349.078C149.938 349.078 148.281 347.672 148.281 345.656C148.281 343.656 149.938 342.234 152.156 342.25ZM152.156 343.75C150.922 343.75 150 344.484 150 345.656C150 346.844 150.922 347.562 152.156 347.562C153.406 347.562 154.344 346.844 154.344 345.656C154.344 344.484 153.406 343.75 152.156 343.75ZM159.344 341.266V355.406H157.609V341.266H159.344ZM147.641 351.031C150.188 351.031 153.719 351 156.766 350.562L156.906 351.828C153.734 352.438 150.344 352.453 147.859 352.453L147.641 351.031Z" fill="#525866"/>
<rect width="16" height="16" transform="translate(56 380)" fill="#D6D6DD"/>
<path d="M100 382.562V383.922C99.9844 385.672 99.9844 387.641 99.4375 390.594L97.6875 390.406C98.2344 387.656 98.2344 385.648 98.25 383.953H89.8125V382.562H100ZM101.344 392.141V393.562H88.4688V392.141H93.2188V387.234H94.9375V392.141H101.344ZM107.469 383.297C107.453 385.219 108.578 386.969 110.797 387.672L109.859 389.031C108.32 388.492 107.242 387.469 106.641 386.125C106.016 387.664 104.836 388.875 103.125 389.469L102.203 388.062C104.547 387.297 105.719 385.406 105.719 383.375V382.031H107.469V383.297ZM114.125 381.266V389.578H112.391V385.422H109.578V384H112.391V381.266H114.125ZM109.344 389.953C112.344 389.953 114.172 390.953 114.172 392.672C114.172 394.391 112.344 395.375 109.344 395.375C106.359 395.375 104.531 394.391 104.547 392.672C104.531 390.953 106.359 389.953 109.344 389.953ZM109.344 391.297C107.375 391.297 106.266 391.781 106.266 392.672C106.266 393.531 107.375 394.016 109.344 394.016C111.312 394.016 112.438 393.531 112.438 392.672C112.438 391.781 111.312 391.297 109.344 391.297ZM127.547 384.938V386.344H117.797V381.516H119.531V384.938H127.547ZM129.016 387.703V389.109H116.125V387.703H129.016ZM122.547 390.125C125.594 390.141 127.422 391.078 127.438 392.734C127.422 394.391 125.594 395.328 122.547 395.328C119.469 395.328 117.625 394.391 117.625 392.734C117.625 391.078 119.469 390.141 122.547 390.125ZM122.547 391.484C120.484 391.5 119.375 391.891 119.391 392.734C119.375 393.547 120.484 394 122.547 394C124.562 394 125.688 393.547 125.703 392.734C125.688 391.891 124.562 391.5 122.547 391.484ZM145.234 387.469V388.875H141.062V392.297H146.656V393.703H133.75V392.297H139.312V388.875H135.234V382.391H137.016V387.469H145.234ZM159.062 388.672V390.047H149.156V382.375H158.938V383.781H150.922V385.484H158.609V386.844H150.922V388.672H159.062ZM160.484 392.25V393.672H147.578V392.25H160.484ZM174.281 388.062V389.438H168.688V390.797H172.703V395.391H170.969V392.203H162.828V390.797H166.969V389.438H161.406V388.062H174.281ZM164.797 381.609V383.016H170.891V381.609H172.609V387.016H163.078V381.609H164.797ZM164.797 385.625H170.891V384.312H164.797V385.625ZM191.188 381.266V395.391H189.531V388.188H187.938V394.672H186.344V381.531H187.938V386.797H189.531V381.266H191.188ZM184.75 382.938V384.344H181.219V390.625C182.758 390.609 184.023 390.531 185.453 390.266L185.578 391.688C183.875 392.031 182.391 392.078 180.422 392.094H179.469V382.938H184.75ZM196.719 382.297C198 382.297 199.055 383.008 199.688 384.25H202.984V381.266H204.703V395.406H202.984V390.062H199.812C199.203 391.469 198.086 392.281 196.719 392.281C194.594 392.281 193.094 390.359 193.094 387.281C193.094 384.234 194.594 382.297 196.719 382.297ZM196.719 383.859C195.547 383.859 194.75 385.125 194.766 387.281C194.75 389.453 195.547 390.719 196.719 390.719C197.891 390.719 198.672 389.453 198.688 387.281C198.672 385.125 197.891 383.859 196.719 383.859ZM200.172 385.672C200.273 386.164 200.328 386.703 200.328 387.281C200.328 387.773 200.289 388.227 200.219 388.656H202.984V385.672H200.172Z" fill="#525866"/>
<path d="M64.8594 438.625V440H56.4844V438.625H59.8125V437.203H61.5469V438.625H64.8594ZM60.6719 440.547C62.7188 440.547 64.1094 441.578 64.125 443.125C64.1094 444.672 62.7188 445.703 60.6719 445.703C58.625 445.703 57.2031 444.672 57.2031 443.125C57.2031 441.578 58.625 440.547 60.6719 440.547ZM60.6719 441.859C59.5938 441.859 58.8906 442.328 58.8906 443.125C58.8906 443.922 59.5938 444.375 60.6719 444.359C61.75 444.375 62.4688 443.922 62.4688 443.125C62.4688 442.328 61.75 441.859 60.6719 441.859ZM67.6094 437.266V441.016H69.5781V442.438H67.6094V446.109H65.875V437.266H67.6094ZM67.6094 446.766V451.391H65.875V448.156H58.2031V446.766H67.6094ZM73.5625 445.734V447.078H79.7812V445.734H81.5156V451.219H71.8438V445.734H73.5625ZM73.5625 449.844H79.7812V448.406H73.5625V449.844ZM83.1719 443.516V444.938H70.2969V443.516H83.1719ZM77.625 437.953C77.625 439.469 79.5625 441.062 82.4844 441.406L81.875 442.781C79.5078 442.461 77.6406 441.414 76.7344 439.984C75.8203 441.422 73.9453 442.461 71.5938 442.781L70.9531 441.406C73.9062 441.047 75.8281 439.516 75.8438 437.953V437.422H77.625V437.953ZM100.109 437.266V451.391H98.4375V437.266H100.109ZM97.3594 437.531V450.734H95.75V446.562H94C93.5078 447.656 92.5156 448.344 91.2812 448.344C89.5469 448.344 88.2656 446.969 88.2812 445C88.2656 443.016 89.5469 441.656 91.2812 441.641C93.0312 441.656 94.2969 443.016 94.2969 445V445.172H95.75V443.328H94.0469V441.906H95.75V437.531H97.3594ZM94.7188 439.516V440.906H87.8906V439.516H90.4531V437.625H92.1875V439.516H94.7188ZM91.2812 443.125C90.3906 443.125 89.7969 443.828 89.7969 445C89.7969 446.141 90.3906 446.875 91.2812 446.875C92.1719 446.875 92.7812 446.141 92.7969 445C92.7812 443.828 92.1719 443.125 91.2812 443.125ZM107.828 438.25V439.641H103.953V441.016H107.688V442.344H103.953V443.828C105.68 443.812 106.875 443.742 108.25 443.484L108.438 444.891C106.781 445.203 105.406 445.25 103.219 445.25H102.281V438.25H107.828ZM113.828 437.281V445.875H112.172V442.203H110.703V445.766H109.078V437.547H110.703V440.812H112.172V437.281H113.828ZM113.828 446.5V451.391H112.094V447.906H104.156V446.5H113.828Z" fill="#8C8F9E"/>
<line x1="56" y1="463.5" x2="224" y2="463.5" stroke="#D6D6DD"/>
<rect width="16" height="16" transform="translate(56 484)" fill="#D6D6DD"/>
<path d="M101.359 493.219V494.656H95.7344V499.391H94.0156V494.656H88.4531V493.219H101.359ZM94.875 485.766C97.875 485.781 99.9688 487 99.9688 488.938C99.9688 490.859 97.875 492.062 94.875 492.062C91.8594 492.062 89.7969 490.859 89.8125 488.938C89.7969 487 91.8594 485.781 94.875 485.766ZM94.875 487.172C92.875 487.172 91.5781 487.828 91.5938 488.938C91.5781 490.031 92.875 490.688 94.875 490.688C96.875 490.688 98.1719 490.031 98.1719 488.938C98.1719 487.828 96.875 487.172 94.875 487.172ZM109.656 486.438C109.656 488.219 111.641 490.016 114.656 490.406L113.969 491.812C111.57 491.453 109.664 490.273 108.75 488.672C107.82 490.273 105.922 491.453 103.547 491.812L102.859 490.406C105.844 490.016 107.828 488.219 107.828 486.438V485.719H109.656V486.438ZM115.172 493.031V494.469H109.562V499.391H107.844V494.469H102.297V493.031H115.172ZM127.281 486.438C127.281 488.219 129.266 490.016 132.281 490.406L131.594 491.812C129.195 491.453 127.289 490.273 126.375 488.672C125.445 490.273 123.547 491.453 121.172 491.812L120.484 490.406C123.469 490.016 125.453 488.219 125.453 486.438V485.719H127.281V486.438ZM132.797 493.031V494.469H127.188V499.391H125.469V494.469H119.922V493.031H132.797ZM146.656 496.312V497.75H133.75V496.312H137.172V493.984H135.281V489.375H143.406V487.641H135.25V486.234H145.125V490.766H137.016V492.578H145.453V493.984H143.391V496.312H146.656ZM138.859 496.312H141.688V493.984H138.859V496.312ZM151.984 487.891C151.984 489.422 152.875 490.953 154.734 491.656L153.812 492.984C152.555 492.5 151.68 491.602 151.172 490.5C150.656 491.766 149.734 492.844 148.391 493.406L147.453 492.078C149.391 491.219 150.297 489.453 150.312 487.891V486.141H151.984V487.891ZM159.656 485.281V493.938H158V490.266H156.594V493.5H154.969V485.547H156.594V488.844H158V485.281H159.656ZM154.891 494.172C157.844 494.172 159.719 495.141 159.734 496.766C159.719 498.391 157.844 499.375 154.891 499.375C151.906 499.375 150.047 498.391 150.047 496.766C150.047 495.141 151.906 494.172 154.891 494.172ZM154.891 495.484C152.938 495.484 151.781 495.938 151.781 496.766C151.781 497.609 152.938 498.047 154.891 498.047C156.828 498.047 157.984 497.609 157.984 496.766C157.984 495.938 156.828 495.484 154.891 495.484ZM169.516 489.562C169.516 491.719 170.406 493.938 172.406 494.984L171.422 496.266C170.102 495.578 169.219 494.344 168.719 492.859C168.219 494.453 167.328 495.82 166 496.578L165 495.297C166.969 494.141 167.875 491.797 167.875 489.562V489.172H165.406V487.75H167.875V485.766H169.516V487.75H171.953V489.172H169.516V489.562ZM177.453 485.266V499.391H175.797V492.234H174.344V498.703H172.703V485.516H174.344V490.797H175.797V485.266H177.453ZM191.906 492.062V493.453H179.031V492.062H182.031V490.266C180.969 489.82 180.359 489.109 180.359 488.188C180.359 486.5 182.344 485.5 185.453 485.5C188.562 485.5 190.531 486.5 190.547 488.188C190.539 489.117 189.93 489.828 188.859 490.266V492.062H191.906ZM185.453 494.312C188.5 494.297 190.328 495.203 190.344 496.828C190.328 498.469 188.5 499.359 185.453 499.359C182.375 499.359 180.531 498.469 180.531 496.828C180.531 495.203 182.375 494.297 185.453 494.312ZM185.453 495.625C183.391 495.625 182.281 496.031 182.297 496.828C182.281 497.625 183.391 498.047 185.453 498.047C187.469 498.047 188.594 497.625 188.609 496.828C188.594 496.031 187.469 495.625 185.453 495.625ZM185.453 486.844C183.359 486.844 182.156 487.312 182.172 488.188C182.156 489.047 183.359 489.5 185.453 489.5C187.531 489.5 188.75 489.047 188.75 488.188C188.75 487.312 187.531 486.844 185.453 486.844ZM183.781 492.062H187.125V490.719C186.617 490.789 186.055 490.828 185.453 490.828C184.852 490.828 184.289 490.789 183.781 490.719V492.062ZM209.547 493.219V494.656H203.922V499.391H202.203V494.656H196.641V493.219H209.547ZM203.062 485.766C206.062 485.781 208.156 487 208.156 488.938C208.156 490.859 206.062 492.062 203.062 492.062C200.047 492.062 197.984 490.859 198 488.938C197.984 487 200.047 485.781 203.062 485.766ZM203.062 487.172C201.062 487.172 199.766 487.828 199.781 488.938C199.766 490.031 201.062 490.688 203.062 490.688C205.062 490.688 206.359 490.031 206.359 488.938C206.359 487.828 205.062 487.172 203.062 487.172ZM222.641 485.266V499.391H220.984V492.188H219.391V498.672H217.797V485.531H219.391V490.797H220.984V485.266H222.641ZM216.203 486.938V488.344H212.672V494.625C214.211 494.609 215.477 494.531 216.906 494.266L217.031 495.688C215.328 496.031 213.844 496.078 211.875 496.094H210.922V486.938H216.203Z" fill="#ED1B23"/>
<rect width="16" height="16" transform="translate(56 524)" fill="#D6D6DD"/>
<path d="M101.344 533.234V534.609H95.9062V536.484H94.1875V534.609H88.4688V533.234H101.344ZM99.9375 537.734V539.109H90.0156V535.578H91.75V537.734H99.9375ZM100.641 526.5V527.812H89.1094V526.5H94.0312V525.172H95.7656V526.5H100.641ZM94.8906 528.281C97.875 528.281 99.5938 529.016 99.5938 530.422C99.5938 531.828 97.875 532.594 94.8906 532.594C91.9062 532.594 90.2031 531.828 90.2031 530.422C90.2031 529.016 91.9062 528.281 94.8906 528.281ZM94.8906 529.5C92.9219 529.5 91.9688 529.797 91.9844 530.422C91.9688 531.047 92.9219 531.344 94.8906 531.344C96.8438 531.344 97.8125 531.047 97.8125 530.422C97.8125 529.797 96.8438 529.5 94.8906 529.5ZM109.047 526.25V530.641H104.594V532.5C106.727 532.484 108.086 532.391 109.672 532.125L109.859 533.547C108.031 533.859 106.5 533.891 103.906 533.891H102.844V529.328H107.297V527.641H102.828V526.25H109.047ZM114.125 525.281V535.688H112.391V532.078H109.922V530.672H112.391V528.891H109.922V527.5H112.391V525.281H114.125ZM114.5 537.656V539.078H104.75V534.906H106.484V537.656H114.5ZM124.984 527.812C124.984 529.547 126.109 531.172 128.312 531.844L127.484 533.203C125.898 532.711 124.773 531.703 124.156 530.422C123.531 531.906 122.336 533.086 120.641 533.656L119.766 532.281C122.047 531.531 123.234 529.703 123.234 527.828V527.656H120.25V526.25H127.922V527.656H124.984V527.812ZM131.062 525.266V528.656H133.031V530.078H131.062V533.688H129.328V525.266H131.062ZM126.469 534C129.391 534 131.188 534.984 131.203 536.672C131.188 538.375 129.391 539.375 126.469 539.375C123.516 539.375 121.688 538.375 121.688 536.672C121.688 534.984 123.516 534 126.469 534ZM126.469 535.359C124.531 535.359 123.422 535.812 123.422 536.672C123.422 537.547 124.531 538.016 126.469 538.016C128.406 538.016 129.484 537.547 129.484 536.672C129.484 535.812 128.406 535.359 126.469 535.359ZM145.578 525.266V539.406H143.844V533.609H141.266V532.188H143.844V529.766H141.312V528.344H143.844V525.266H145.578ZM140.516 526.484V531.766H135.984V534.766C137.852 534.75 139.477 534.672 141.375 534.391L141.516 535.812C139.344 536.156 137.547 536.203 135.359 536.203H134.266V530.406H138.812V527.875H134.219V526.484H140.516ZM158.906 525.953V527.047C158.906 528.141 158.906 529.391 158.562 531.062H160.484V532.469H147.578V531.062H156.812C157.141 529.539 157.172 528.375 157.172 527.344H149.172V525.953H158.906ZM158.891 534.109V539.219H149.125V534.109H158.891ZM150.828 535.469V537.812H157.172V535.469H150.828Z" fill="#525866"/>
</svg>
