<svg width="24" height="24" viewBox="0 0 24 24" fill="none" xmlns="http://www.w3.org/2000/svg">
<path d="M14 12C14 10.8954 13.1046 10 12 10C10.8954 10 10 10.8954 10 12C10 13.1046 10.8954 14 12 14V15C10.3431 15 9 13.6569 9 12C9 10.3431 10.3431 9 12 9C13.6569 9 15 10.3431 15 12C15 13.6569 13.6569 15 12 15V14C13.1046 14 14 13.1046 14 12Z" fill="#C7C9D1"/>
<path d="M11.5 4H12.5V7H11.5V4Z" fill="#C7C9D1"/>
<path d="M20 11.5V12.5H17V11.5H20Z" fill="#C7C9D1"/>
<path d="M6.6967 18.0104L5.98959 17.3033L8.11091 15.182L8.81802 15.8891L6.6967 18.0104Z" fill="#C7C9D1"/>
<path d="M17.3034 18.0104L18.0105 17.3033L15.8892 15.1819L15.1821 15.8891L17.3034 18.0104Z" fill="#C7C9D1"/>
<path d="M11.5 17H12.5V20H11.5V17Z" fill="#C7C9D1"/>
<path d="M7 11.5V12.5H4L4 11.5H7Z" fill="#C7C9D1"/>
<path d="M15.8891 8.81802L15.182 8.11091L17.3033 5.98959L18.0104 6.6967L15.8891 8.81802Z" fill="#C7C9D1"/>
<path d="M8.11099 8.81799L8.8181 8.11089L6.69678 5.98957L5.98967 6.69667L8.11099 8.81799Z" fill="#C7C9D1"/>
</svg>
