<svg width="20" height="20" viewBox="0 0 20 20" fill="none" xmlns="http://www.w3.org/2000/svg">
<path d="M12.3333 8.5V4.75C12.3333 3.50736 11.2887 2.5 10 2.5C8.71134 2.5 7.66667 3.50736 7.66667 4.75V8.5C7.66667 9.74264 8.71134 10.75 10 10.75V12.25C7.85223 12.25 6.11111 10.5711 6.11111 8.5V4.75C6.11111 2.67893 7.85223 1 10 1C12.1478 1 13.8889 2.67893 13.8889 4.75V8.5C13.8889 10.5711 12.1478 12.25 10 12.25V10.75C11.2887 10.75 12.3333 9.74264 12.3333 8.5Z" fill="#C7C9D1"/>
<path d="M3 8.5C3 8.08579 3.34822 7.75 3.77778 7.75C4.20733 7.75 4.55556 8.08579 4.55556 8.5C4.55556 11.3995 6.99312 13.75 10 13.75C13.0069 13.75 15.4444 11.3995 15.4444 8.5C15.4444 8.08579 15.7927 7.75 16.2222 7.75C16.6518 7.75 17 8.08579 17 8.5C17 12.2279 13.866 15.25 10 15.25C6.13401 15.25 3 12.2279 3 8.5Z" fill="#C7C9D1"/>
<path d="M9.22222 15.25C9.22222 14.8358 9.57045 14.5 10 14.5C10.4296 14.5 10.7778 14.8358 10.7778 15.25V18.25C10.7778 18.6642 10.4296 19 10 19C9.57045 19 9.22222 18.6642 9.22222 18.25V15.25Z" fill="#C7C9D1"/>
</svg>
